<?xml version="1.0" encoding="utf-8"?>
<!-- Generator: Adobe Illustrator 17.1.0, SVG Export Plug-In . SVG Version: 6.00 Build 0)  -->
<!DOCTYPE svg PUBLIC "-//W3C//DTD SVG 1.1//EN" "http://www.w3.org/Graphics/SVG/1.1/DTD/svg11.dtd">
<svg xmlns="http://www.w3.org/2000/svg" viewBox="0 0 354.67 111.46"><defs><style>.cls-1{fill:#053b7c;}.cls-2{fill:#eec33a;}</style></defs><title>Ресурс 1</title><g id="Слой_2" data-name="Слой 2"><g id="Слой_1-2" data-name="Слой 1"><g id="Слой_2-2" data-name="Слой 2"><g id="Слой_1-2-2" data-name="Слой 1-2"><path class="cls-1" d="M106.85,20.88l25.08,67.2h-7.38c-1-2.55-2.29-5.85-3.57-9.67H89.16c-1.53,3.82-2.8,7.12-3.82,9.67H78.21l24.85-67.2m15.38,50.65c-5.09-13.49-11-29.27-13.49-36.14C102.4,42.26,96.54,58,91.71,71.53Z"/><path class="cls-1" d="M62.49,88.08l-5.56-5.55a36.65,36.65,0,1,1,5.29-4.27l9.84,9.82M38.55,64.15l4.74-4.78,14.1,14.36a28.31,28.31,0,0,0,9.07-21.16,28.83,28.83,0,1,0-57.66,0,29.12,29.12,0,0,0,29,29A31.32,31.32,0,0,0,52.15,77.8Z"/><path class="cls-1" d="M140.88,88.08V6.76h6.8V81.54h27.2v6.54Z"/><path class="cls-2" d="M204.35,60.33a25.28,25.28,0,0,0,.94,6.88A35.63,35.63,0,1,1,224.4,34.73,26.38,26.38,0,0,0,204.35,60.33Z"/><path class="cls-2" d="M223.84,41.82a35.24,35.24,0,0,1-12.47,21.34,18.85,18.85,0,0,1-.21-2.83A19.89,19.89,0,0,1,223.84,41.82Z"/><path class="cls-1" d="M309.74,88.34V58.63a16.07,16.07,0,0,0-16-16.12h-.1a16.28,16.28,0,0,0-16.33,16.12V88.34h-6.55l-.1-67.2h6.54l.11,21.37a23,23,0,0,1,39.28,16.12V88.34Z"/><path class="cls-1" d="M334,88.27V43.7H323.7V36.91H334V21.2h6.8V36.91h13.85V43.7H340.82V88.27Z"/><rect class="cls-1" x="185.37" y="49.9" width="6.8" height="38.29"/><circle class="cls-1" cx="188.77" cy="35.64" r="3.4"/><path class="cls-1" d="M250.7,34.66v8.07a26.37,26.37,0,0,0-26.3-8v.91a32.37,32.37,0,0,1-.56,6.18,19.74,19.74,0,1,1-12.47,21.34,35.53,35.53,0,0,1-6.08,4A26.59,26.59,0,0,0,250.7,78v7a19.75,19.75,0,0,1-35.28,12.33l-5.27,4.05A25.88,25.88,0,0,0,231,111.45,26.6,26.6,0,0,0,257.48,85V34.66Z"/></g></g></g></g></svg>